<svg width="34" height="34" viewBox="0 0 34 34" fill="none" xmlns="http://www.w3.org/2000/svg">
<path d="M8.49149 17C8.49149 21.6937 12.3097 25.5119 17.0034 25.5119C21.6971 25.5119 25.5153 21.6937 25.5153 17C25.5153 12.3063 21.6971 8.48809 17.0034 8.48809C12.3097 8.48809 8.49149 12.3063 8.49149 17ZM17.0034 11.8881C19.822 11.8881 22.1153 14.1814 22.1153 17C22.1153 19.8186 19.822 22.1119 17.0034 22.1119C14.1848 22.1119 11.8915 19.8186 11.8915 17C11.8915 14.1814 14.1848 11.8881 17.0034 11.8881ZM15.3 28.9H18.7V34H15.3V28.9ZM15.3 0H18.7V5.09999H15.3V0ZM0 15.3H5.09999V18.7H0V15.3ZM28.9 15.3H34V18.7H28.9V15.3ZM3.77569 27.8171L7.37969 24.2097L9.78519 26.6135L6.18119 30.2209L3.77569 27.8171ZM24.2114 7.38479L27.8188 3.7774L30.2226 6.18119L26.6152 9.78859L24.2114 7.38479ZM7.38479 9.79029L3.77739 6.18289L6.18289 3.7791L9.78689 7.38649L7.38479 9.79029ZM30.2226 27.8188L27.8188 30.2226L24.2114 26.6152L26.6152 24.2114L30.2226 27.8188Z" fill="white"/>
</svg>
