<svg width="7" height="27" viewBox="0 0 7 27" fill="none" xmlns="http://www.w3.org/2000/svg">
<path d="M3.375 10.125C1.51875 10.125 0 11.6437 0 13.5C0 15.3562 1.51875 16.875 3.375 16.875C5.23125 16.875 6.74999 15.3562 6.74999 13.5C6.74999 11.6437 5.23125 10.125 3.375 10.125ZM3.375 0C1.51875 0 0 1.51875 0 3.375C0 5.23125 1.51875 6.74999 3.375 6.74999C5.23125 6.74999 6.74999 5.23125 6.74999 3.375C6.74999 1.51875 5.23125 0 3.375 0ZM3.375 20.25C1.51875 20.25 0 21.7687 0 23.625C0 25.4812 1.51875 27 3.375 27C5.23125 27 6.74999 25.4812 6.74999 23.625C6.74999 21.7687 5.23125 20.25 3.375 20.25Z" fill="white"/>
</svg>
